<?xml version="1.0" encoding="UTF-8"?>
<svg xmlns="http://www.w3.org/2000/svg" xmlns:xlink="http://www.w3.org/1999/xlink" id="Groupe_3" data-name="Groupe 3" width="82.315" height="57.821" viewBox="0 0 82.315 57.821">
  <defs>
    <clipPath id="clip-path">
      <rect id="Rectangle_1" data-name="Rectangle 1" width="82.316" height="57.821" fill="#00a0dd"></rect>
    </clipPath>
  </defs>
  <g id="Groupe_1" data-name="Groupe 1" clip-path="url(#clip-path)">
    <path id="Tracé_1" data-name="Tracé 1" d="M3.911,26.037h8.814a12.833,12.833,0,0,0,3.57-.48,9.313,9.313,0,0,0,2.954-1.422,6.979,6.979,0,0,0,2.042-2.35,6.782,6.782,0,0,0,.752-3.233,7,7,0,0,0-1.7-4.639,6.342,6.342,0,0,0-1.869-1.462,5.543,5.543,0,0,0-.711-.31,7.211,7.211,0,0,0,1.856-1.493A5.657,5.657,0,0,0,20.95,6.78a6.757,6.757,0,0,0-.636-3.005,5.89,5.89,0,0,0-1.747-2.131A7.636,7.636,0,0,0,15.989.407,11.812,11.812,0,0,0,12.831,0H3.911A.291.291,0,0,0,3.62.294V25.744a.291.291,0,0,0,.291.293M8.086,14.406H12.55a5.761,5.761,0,0,1,3.58,1,3.4,3.4,0,0,1,1.235,2.9,3.2,3.2,0,0,1-.466,1.84,3.878,3.878,0,0,1-1.2,1.129,4.586,4.586,0,0,1-1.562.566,9.687,9.687,0,0,1-1.618.152H8.086Zm7.878-5.762a2.769,2.769,0,0,1-.844.975,3.51,3.51,0,0,1-1.283.564,7.508,7.508,0,0,1-1.677.179H8.086V4.045h4.78a3.287,3.287,0,0,1,2.588.907,3.284,3.284,0,0,1,.819,2.216,3.181,3.181,0,0,1-.308,1.476" transform="translate(-2.085 -0.001)" fill="#00a0dd"></path>
    <path id="Tracé_2" data-name="Tracé 2" d="M70.405,26.035a.292.292,0,0,0,.293-.292v-3.67a.293.293,0,0,0-.293-.293H60.437V.292A.293.293,0,0,0,60.144,0h-.25a3.928,3.928,0,0,0-3.923,3.925V25.743a.291.291,0,0,0,.291.292H70.405Z" transform="translate(-32.233 0.001)" fill="#00a0dd"></path>
    <path id="Tracé_3" data-name="Tracé 3" d="M116.533,20.541a10.822,10.822,0,0,0,.78-4.173V.294A.29.29,0,0,0,117.022,0h-3.884a.289.289,0,0,0-.291.291V15.838a9.228,9.228,0,0,1-.3,2.281,6.418,6.418,0,0,1-.975,2.131,5.189,5.189,0,0,1-1.759,1.565,5.4,5.4,0,0,1-2.515.582l0,0c-.031.008-.087.006-.127.011a.227.227,0,0,1-.052.008,5.468,5.468,0,0,1-2.7-.6,5.216,5.216,0,0,1-1.759-1.565,6.414,6.414,0,0,1-.977-2.131,9.33,9.33,0,0,1-.3-2.281V.294A.29.29,0,0,0,101.093,0H97.209a.291.291,0,0,0-.293.291V16.368a10.875,10.875,0,0,0,.78,4.173A10.064,10.064,0,0,0,99.86,23.8a9.58,9.58,0,0,0,3.248,2.129,10.772,10.772,0,0,0,4.007.743c.042,0,.083,0,.195-.009h0a10.679,10.679,0,0,0,3.809-.734,9.636,9.636,0,0,0,3.25-2.129,10.032,10.032,0,0,0,2.162-3.26" transform="translate(-55.813 -0.002)" fill="#00a0dd"></path>
    <path id="Tracé_4" data-name="Tracé 4" d="M11.475,77.96a8.909,8.909,0,0,1,9.987,5.046.145.145,0,0,0,.279-.029,17.527,17.527,0,0,1,1.728-4.732.3.3,0,0,0-.035-.331,13.36,13.36,0,1,0,.033,17.469.221.221,0,0,0,.025-.251,17.584,17.584,0,0,1-1.753-4.778.144.144,0,0,0-.277-.027A8.9,8.9,0,0,1,4.637,84.855a9.746,9.746,0,0,1,6.838-6.9" transform="translate(0 -42.217)" fill="#00a0dd"></path>
    <path id="Tracé_5" data-name="Tracé 5" d="M74.679,73.335a13.415,13.415,0,1,0,12.59,8.934,13.278,13.278,0,0,0-12.59-8.934" transform="translate(-35.313 -42.233)" fill="#00a0dd"></path>
    <path id="Tracé_6" data-name="Tracé 6" d="M159.337,74.141H153.88a.3.3,0,0,0-.271.179L146.69,92.334l-6.42-18.014a.3.3,0,0,0-.269-.179h-5.456a.293.293,0,0,0-.293.293v25.45a.293.293,0,0,0,.293.293h3.882a.293.293,0,0,0,.293-.293V81.7l6.371,18.3a.294.294,0,0,0,.272.181h2.589a.294.294,0,0,0,.272-.181l6.938-18.3V99.884a.291.291,0,0,0,.291.293h.333a3.844,3.844,0,0,0,3.843-3.844v-21.9a.293.293,0,0,0-.293-.293" transform="translate(-77.314 -42.697)" fill="#00a0dd"></path>
    <path id="Tracé_7" data-name="Tracé 7" d="M160.964,6.119V4.256h11.182a.293.293,0,0,0,.293-.293V3.454A3.455,3.455,0,0,0,168.984,0h-12.2a.293.293,0,0,0-.293.293V25.744a.293.293,0,0,0,.293.293h15.357a.293.293,0,0,0,.293-.293v-3.67a.292.292,0,0,0-.293-.293H160.964V14.864h9.666a.292.292,0,0,0,.293-.291V10.9a.293.293,0,0,0-.293-.293h-9.666V6.119Z" transform="translate(-90.124)" fill="#00a0dd"></path>
  </g>
</svg>
